{
	"asset":{
		"generator":"Khronos glTF Blender I/O v4.1.63",
		"version":"2.0"
	},
	"scene":0,
	"scenes":[
		{
			"name":"Scene",
			"nodes":[
				1,
				2,
				6,
				8,
				10,
				11,
				15
			]
		}
	],
	"nodes":[
		{
			"name":"CRANE+V2"
		},
		{
			"children":[
				0
			],
			"name":"CRANEplusV2_20201013 v2",
			"translation":[
				0,
				0,
				-0.2160000056028366
			]
		},
		{
			"mesh":0,
			"name":"COMPOUND057"
		},
		{
			"name":"COMPOUND065"
		},
		{
			"children":[
				3
			],
			"name":"\u30b5\u30fc\u30dc\uff15",
			"rotation":[
				0,
				0,
				0.6427876353263855,
				0.7660444378852844
			],
			"translation":[
				0.2313411682844162,
				0.15802399814128876,
				0
			]
		},
		{
			"children":[
				4
			],
			"name":"CRANE+V2.001"
		},
		{
			"children":[
				5
			],
			"name":"CRANEplusV2_20201013 v2.001",
			"translation":[
				0,
				0,
				-0.2160000056028366
			]
		},
		{
			"name":"CRANE+V2.002"
		},
		{
			"children":[
				7
			],
			"name":"CRANEplusV2_20201013 v2.002",
			"translation":[
				0,
				0,
				-0.2160000056028366
			]
		},
		{
			"name":"CRANE+V2.003"
		},
		{
			"children":[
				9
			],
			"name":"CRANEplusV2_20201013 v2.003",
			"translation":[
				0,
				0,
				-0.2160000056028366
			]
		},
		{
			"name":"COMPOUND033"
		},
		{
			"name":"COMPOUND011"
		},
		{
			"children":[
				12
			],
			"name":"\u30b5\u30fc\u30dc\uff11"
		},
		{
			"children":[
				13
			],
			"name":"CRANE+V2.004"
		},
		{
			"children":[
				14
			],
			"name":"CRANEplusV2_20201013 v2.004",
			"translation":[
				0,
				0,
				-0.2160000056028366
			]
		}
	],
	"materials":[
		{
			"doubleSided":true,
			"name":"mat_2",
			"pbrMetallicRoughness":{
				"baseColorFactor":[
					0.03071344457566738,
					0.03071344457566738,
					0.03071344457566738,
					1
				],
				"metallicFactor":0.5,
				"roughnessFactor":0.5
			}
		},
		{
			"doubleSided":true,
			"name":"mat_1",
			"pbrMetallicRoughness":{
				"baseColorFactor":[
					0.4507858157157898,
					0.4507858157157898,
					0.4507858157157898,
					1
				],
				"metallicFactor":0.5,
				"roughnessFactor":0.5
			}
		}
	],
	"meshes":[
		{
			"name":"COMPOUND057",
			"primitives":[
				{
					"attributes":{
						"POSITION":0,
						"NORMAL":1
					},
					"indices":2,
					"material":0
				},
				{
					"attributes":{
						"POSITION":3,
						"NORMAL":4
					},
					"indices":5,
					"material":1
				}
			]
		}
	],
	"accessors":[
		{
			"bufferView":0,
			"componentType":5126,
			"count":1254,
			"max":[
				0.01697031408548355,
				0.09289175271987915,
				0.027505818754434586
			],
			"min":[
				-0.017029695212841034,
				-0.012499275617301464,
				0.006005826871842146
			],
			"type":"VEC3"
		},
		{
			"bufferView":1,
			"componentType":5126,
			"count":1254,
			"type":"VEC3"
		},
		{
			"bufferView":2,
			"componentType":5123,
			"count":1692,
			"type":"SCALAR"
		},
		{
			"bufferView":3,
			"componentType":5126,
			"count":23884,
			"max":[
				0.024370573461055756,
				0.012500760145485401,
				0.026005838066339493
			],
			"min":[
				-0.024429984390735626,
				-0.012499275617301464,
				-0.010994162410497665
			],
			"type":"VEC3"
		},
		{
			"bufferView":4,
			"componentType":5126,
			"count":23884,
			"type":"VEC3"
		},
		{
			"bufferView":5,
			"componentType":5123,
			"count":32196,
			"type":"SCALAR"
		}
	],
	"bufferViews":[
		{
			"buffer":0,
			"byteLength":15048,
			"byteOffset":0,
			"target":34962
		},
		{
			"buffer":0,
			"byteLength":15048,
			"byteOffset":15048,
			"target":34962
		},
		{
			"buffer":0,
			"byteLength":3384,
			"byteOffset":30096,
			"target":34963
		},
		{
			"buffer":0,
			"byteLength":286608,
			"byteOffset":33480,
			"target":34962
		},
		{
			"buffer":0,
			"byteLength":286608,
			"byteOffset":320088,
			"target":34962
		},
		{
			"buffer":0,
			"byteLength":64392,
			"byteOffset":606696,
			"target":34963
		}
	],
	"buffers":[
		{
			"byteLength":671088,
			"uri":"CRANEplusV2_j5.bin"
		}
	]
}
