{
	"asset":{
		"generator":"Khronos glTF Blender I/O v4.1.63",
		"version":"2.0"
	},
	"scene":0,
	"scenes":[
		{
			"name":"Scene",
			"nodes":[
				1,
				2,
				4,
				5,
				9
			]
		}
	],
	"nodes":[
		{
			"name":"CRANE+V2"
		},
		{
			"children":[
				0
			],
			"name":"CRANEplusV2_20201013 v2",
			"translation":[
				0,
				0,
				-0.2160000056028366
			]
		},
		{
			"mesh":0,
			"name":"COMPOUND042"
		},
		{
			"name":"CRANE+V2.001"
		},
		{
			"children":[
				3
			],
			"name":"CRANEplusV2_20201013 v2.001",
			"translation":[
				0,
				0,
				-0.2160000056028366
			]
		},
		{
			"name":"COMPOUND033"
		},
		{
			"name":"COMPOUND011"
		},
		{
			"children":[
				6
			],
			"name":"\u30b5\u30fc\u30dc\uff11"
		},
		{
			"children":[
				7
			],
			"name":"CRANE+V2.002"
		},
		{
			"children":[
				8
			],
			"name":"CRANEplusV2_20201013 v2.002",
			"translation":[
				0,
				0,
				-0.2160000056028366
			]
		}
	],
	"materials":[
		{
			"doubleSided":true,
			"name":"mat_2",
			"pbrMetallicRoughness":{
				"baseColorFactor":[
					0.03071344457566738,
					0.03071344457566738,
					0.03071344457566738,
					1
				],
				"metallicFactor":0.5,
				"roughnessFactor":0.5
			}
		},
		{
			"doubleSided":true,
			"name":"mat_1",
			"pbrMetallicRoughness":{
				"baseColorFactor":[
					0.4507858157157898,
					0.4507858157157898,
					0.4507858157157898,
					1
				],
				"metallicFactor":0.5,
				"roughnessFactor":0.5
			}
		}
	],
	"meshes":[
		{
			"name":"COMPOUND042",
			"primitives":[
				{
					"attributes":{
						"POSITION":0,
						"NORMAL":1
					},
					"indices":2,
					"material":0
				},
				{
					"attributes":{
						"POSITION":3,
						"NORMAL":4
					},
					"indices":5,
					"material":1
				}
			]
		}
	],
	"accessors":[
		{
			"bufferView":0,
			"componentType":5126,
			"count":60308,
			"max":[
				0.015934795141220093,
				0.10499796271324158,
				0.0210336335003376
			],
			"min":[
				-0.016065210103988647,
				0.054997965693473816,
				-0.025511812418699265
			],
			"type":"VEC3"
		},
		{
			"bufferView":1,
			"componentType":5126,
			"count":60308,
			"type":"VEC3"
		},
		{
			"bufferView":2,
			"componentType":5123,
			"count":71904,
			"type":"SCALAR"
		},
		{
			"bufferView":3,
			"componentType":5126,
			"count":27439,
			"max":[
				0.014434799551963806,
				0.060997962951660156,
				0.024388480931520462
			],
			"min":[
				-0.01456521451473236,
				-0.011002033948898315,
				-0.024412062019109726
			],
			"type":"VEC3"
		},
		{
			"bufferView":4,
			"componentType":5126,
			"count":27439,
			"type":"VEC3"
		},
		{
			"bufferView":5,
			"componentType":5123,
			"count":37812,
			"type":"SCALAR"
		}
	],
	"bufferViews":[
		{
			"buffer":0,
			"byteLength":723696,
			"byteOffset":0,
			"target":34962
		},
		{
			"buffer":0,
			"byteLength":723696,
			"byteOffset":723696,
			"target":34962
		},
		{
			"buffer":0,
			"byteLength":143808,
			"byteOffset":1447392,
			"target":34963
		},
		{
			"buffer":0,
			"byteLength":329268,
			"byteOffset":1591200,
			"target":34962
		},
		{
			"buffer":0,
			"byteLength":329268,
			"byteOffset":1920468,
			"target":34962
		},
		{
			"buffer":0,
			"byteLength":75624,
			"byteOffset":2249736,
			"target":34963
		}
	],
	"buffers":[
		{
			"byteLength":2325360,
			"uri":"CRANEplusV2_j3.bin"
		}
	]
}
