{
	"asset":{
		"generator":"Khronos glTF Blender I/O v4.1.63",
		"version":"2.0"
	},
	"scene":0,
	"scenes":[
		{
			"name":"Scene",
			"nodes":[
				3,
				4,
				6,
				8,
				9,
				13
			]
		}
	],
	"nodes":[
		{
			"name":"COMPOUND065"
		},
		{
			"children":[
				0
			],
			"name":"\u30b5\u30fc\u30dc\uff15",
			"rotation":[
				0,
				0,
				0.6427876353263855,
				0.7660444378852844
			],
			"translation":[
				0.2313411682844162,
				0.15802399814128876,
				0
			]
		},
		{
			"children":[
				1
			],
			"name":"CRANE+V2"
		},
		{
			"children":[
				2
			],
			"name":"CRANEplusV2_20201013 v2",
			"translation":[
				0,
				0,
				-0.2160000056028366
			]
		},
		{
			"mesh":0,
			"name":"COMPOUND052"
		},
		{
			"name":"CRANE+V2.001"
		},
		{
			"children":[
				5
			],
			"name":"CRANEplusV2_20201013 v2.001",
			"translation":[
				0,
				0,
				-0.2160000056028366
			]
		},
		{
			"name":"CRANE+V2.002"
		},
		{
			"children":[
				7
			],
			"name":"CRANEplusV2_20201013 v2.002",
			"translation":[
				0,
				0,
				-0.2160000056028366
			]
		},
		{
			"name":"COMPOUND033"
		},
		{
			"name":"COMPOUND011"
		},
		{
			"children":[
				10
			],
			"name":"\u30b5\u30fc\u30dc\uff11"
		},
		{
			"children":[
				11
			],
			"name":"CRANE+V2.003"
		},
		{
			"children":[
				12
			],
			"name":"CRANEplusV2_20201013 v2.003",
			"translation":[
				0,
				0,
				-0.2160000056028366
			]
		}
	],
	"materials":[
		{
			"doubleSided":true,
			"name":"mat_1",
			"pbrMetallicRoughness":{
				"baseColorFactor":[
					0.4507858157157898,
					0.4507858157157898,
					0.4507858157157898,
					1
				],
				"metallicFactor":0.5,
				"roughnessFactor":0.5
			}
		},
		{
			"doubleSided":true,
			"name":"mat_0",
			"pbrMetallicRoughness":{
				"baseColorFactor":[
					0.35153263807296753,
					0.35153263807296753,
					0.35153263807296753,
					1
				],
				"metallicFactor":0.5,
				"roughnessFactor":0.5
			}
		},
		{
			"doubleSided":true,
			"name":"mat_2",
			"pbrMetallicRoughness":{
				"baseColorFactor":[
					0.03071344457566738,
					0.03071344457566738,
					0.03071344457566738,
					1
				],
				"metallicFactor":0.5,
				"roughnessFactor":0.5
			}
		}
	],
	"meshes":[
		{
			"name":"COMPOUND052",
			"primitives":[
				{
					"attributes":{
						"POSITION":0,
						"NORMAL":1
					},
					"indices":2,
					"material":0
				},
				{
					"attributes":{
						"POSITION":3,
						"NORMAL":4
					},
					"indices":5,
					"material":1
				},
				{
					"attributes":{
						"POSITION":6,
						"NORMAL":7
					},
					"indices":8,
					"material":2
				}
			]
		}
	],
	"accessors":[
		{
			"bufferView":0,
			"componentType":5126,
			"count":28283,
			"max":[
				0.018997129052877426,
				0.05749325454235077,
				0.024421850219368935
			],
			"min":[
				-0.019002873450517654,
				-0.011006783694028854,
				-0.026978379115462303
			],
			"type":"VEC3"
		},
		{
			"bufferView":1,
			"componentType":5126,
			"count":28283,
			"type":"VEC3"
		},
		{
			"bufferView":2,
			"componentType":5123,
			"count":39384,
			"type":"SCALAR"
		},
		{
			"bufferView":3,
			"componentType":5126,
			"count":4502,
			"max":[
				0.018997129052877426,
				0.03499321639537811,
				0.012521618977189064
			],
			"min":[
				-0.019002873450517654,
				0.025993213057518005,
				-0.01247837208211422
			],
			"type":"VEC3"
		},
		{
			"bufferView":4,
			"componentType":5126,
			"count":4502,
			"type":"VEC3"
		},
		{
			"bufferView":5,
			"componentType":5123,
			"count":7812,
			"type":"SCALAR"
		},
		{
			"bufferView":6,
			"componentType":5126,
			"count":53951,
			"max":[
				0.02549711987376213,
				0.11981378495693207,
				0.026021623983979225
			],
			"min":[
				-0.021048326045274734,
				0.028993234038352966,
				-0.03847838193178177
			],
			"type":"VEC3"
		},
		{
			"bufferView":7,
			"componentType":5126,
			"count":53951,
			"type":"VEC3"
		},
		{
			"bufferView":8,
			"componentType":5123,
			"count":67662,
			"type":"SCALAR"
		}
	],
	"bufferViews":[
		{
			"buffer":0,
			"byteLength":339396,
			"byteOffset":0,
			"target":34962
		},
		{
			"buffer":0,
			"byteLength":339396,
			"byteOffset":339396,
			"target":34962
		},
		{
			"buffer":0,
			"byteLength":78768,
			"byteOffset":678792,
			"target":34963
		},
		{
			"buffer":0,
			"byteLength":54024,
			"byteOffset":757560,
			"target":34962
		},
		{
			"buffer":0,
			"byteLength":54024,
			"byteOffset":811584,
			"target":34962
		},
		{
			"buffer":0,
			"byteLength":15624,
			"byteOffset":865608,
			"target":34963
		},
		{
			"buffer":0,
			"byteLength":647412,
			"byteOffset":881232,
			"target":34962
		},
		{
			"buffer":0,
			"byteLength":647412,
			"byteOffset":1528644,
			"target":34962
		},
		{
			"buffer":0,
			"byteLength":135324,
			"byteOffset":2176056,
			"target":34963
		}
	],
	"buffers":[
		{
			"byteLength":2311380,
			"uri":"CRANEplusV2_j4.bin"
		}
	]
}
