{
	"asset":{
		"generator":"Khronos glTF Blender I/O v4.1.63",
		"version":"2.0"
	},
	"scene":0,
	"scenes":[
		{
			"name":"Scene",
			"nodes":[
				6
			]
		}
	],
	"nodes":[
		{
			"name":"COMPOUND006"
		},
		{
			"mesh":0,
			"name":"COMPOUND009",
			"translation":[
				0,
				0,
				0.2160000056028366
			]
		},
		{
			"children":[
				1
			],
			"name":"COMPOUND011"
		},
		{
			"children":[
				0,
				2
			],
			"name":"\u30b5\u30fc\u30dc\uff11"
		},
		{
			"name":"\u53f0\u5ea7006"
		},
		{
			"children":[
				3,
				4
			],
			"name":"CRANE+V2"
		},
		{
			"children":[
				5
			],
			"name":"CRANEplusV2_20201013 v2",
			"translation":[
				0,
				0,
				-0.2160000056028366
			]
		}
	],
	"materials":[
		{
			"doubleSided":true,
			"name":"mat_2",
			"pbrMetallicRoughness":{
				"baseColorFactor":[
					0.03071344457566738,
					0.03071344457566738,
					0.03071344457566738,
					1
				],
				"metallicFactor":0.5,
				"roughnessFactor":0.5
			}
		},
		{
			"doubleSided":true,
			"name":"mat_3",
			"pbrMetallicRoughness":{
				"baseColorFactor":[
					0.6038273572921753,
					0.6038273572921753,
					0.6038273572921753,
					1
				],
				"metallicFactor":0.5,
				"roughnessFactor":0.5
			}
		},
		{
			"doubleSided":true,
			"name":"mat_1",
			"pbrMetallicRoughness":{
				"baseColorFactor":[
					0.4507858157157898,
					0.4507858157157898,
					0.4507858157157898,
					1
				],
				"metallicFactor":0.5,
				"roughnessFactor":0.5
			}
		}
	],
	"meshes":[
		{
			"name":"COMPOUND009",
			"primitives":[
				{
					"attributes":{
						"POSITION":0,
						"NORMAL":1
					},
					"indices":2,
					"material":0
				},
				{
					"attributes":{
						"POSITION":3,
						"NORMAL":4
					},
					"indices":5,
					"material":1
				},
				{
					"attributes":{
						"POSITION":6,
						"NORMAL":7
					},
					"indices":8,
					"material":2
				}
			]
		}
	],
	"accessors":[
		{
			"bufferView":0,
			"componentType":5126,
			"count":10863,
			"max":[
				0.013000000268220901,
				0.04554544761776924,
				0.042500004172325134
			],
			"min":[
				-0.041999999433755875,
				0,
				-0.042500004172325134
			],
			"type":"VEC3"
		},
		{
			"bufferView":1,
			"componentType":5126,
			"count":10863,
			"type":"VEC3"
		},
		{
			"bufferView":2,
			"componentType":5123,
			"count":14172,
			"type":"SCALAR"
		},
		{
			"bufferView":3,
			"componentType":5126,
			"count":45361,
			"max":[
				0.011500000022351742,
				0.04349999874830246,
				0.015999987721443176
			],
			"min":[
				-0.03849999979138374,
				0.005499830469489098,
				-0.01600000262260437
			],
			"type":"VEC3"
		},
		{
			"bufferView":4,
			"componentType":5126,
			"count":45361,
			"type":"VEC3"
		},
		{
			"bufferView":5,
			"componentType":5123,
			"count":57450,
			"type":"SCALAR"
		},
		{
			"bufferView":6,
			"componentType":5126,
			"count":5348,
			"max":[
				-0.0032999999821186066,
				0.009699998423457146,
				0.015999987721443176
			],
			"min":[
				-0.025700001046061516,
				0.001500000013038516,
				-0.01600000262260437
			],
			"type":"VEC3"
		},
		{
			"bufferView":7,
			"componentType":5126,
			"count":5348,
			"type":"VEC3"
		},
		{
			"bufferView":8,
			"componentType":5123,
			"count":10344,
			"type":"SCALAR"
		}
	],
	"bufferViews":[
		{
			"buffer":0,
			"byteLength":130356,
			"byteOffset":0,
			"target":34962
		},
		{
			"buffer":0,
			"byteLength":130356,
			"byteOffset":130356,
			"target":34962
		},
		{
			"buffer":0,
			"byteLength":28344,
			"byteOffset":260712,
			"target":34963
		},
		{
			"buffer":0,
			"byteLength":544332,
			"byteOffset":289056,
			"target":34962
		},
		{
			"buffer":0,
			"byteLength":544332,
			"byteOffset":833388,
			"target":34962
		},
		{
			"buffer":0,
			"byteLength":114900,
			"byteOffset":1377720,
			"target":34963
		},
		{
			"buffer":0,
			"byteLength":64176,
			"byteOffset":1492620,
			"target":34962
		},
		{
			"buffer":0,
			"byteLength":64176,
			"byteOffset":1556796,
			"target":34962
		},
		{
			"buffer":0,
			"byteLength":20688,
			"byteOffset":1620972,
			"target":34963
		}
	],
	"buffers":[
		{
			"byteLength":1641660,
			"uri":"CRANEplusV2_base.bin"
		}
	]
}
