{
	"asset":{
		"generator":"Khronos glTF Blender I/O v4.1.63",
		"version":"2.0"
	},
	"scene":0,
	"scenes":[
		{
			"name":"Scene",
			"nodes":[
				4
			]
		}
	],
	"nodes":[
		{
			"mesh":0,
			"name":"COMPOUND010"
		},
		{
			"children":[
				0
			],
			"name":"COMPOUND011"
		},
		{
			"children":[
				1
			],
			"name":"\u30b5\u30fc\u30dc\uff11"
		},
		{
			"children":[
				2
			],
			"name":"CRANE+V2"
		},
		{
			"children":[
				3
			],
			"name":"CRANEplusV2_20201013 v2",
			"translation":[
				0,
				0,
				-0.2160000056028366
			]
		}
	],
	"materials":[
		{
			"doubleSided":true,
			"name":"mat_1",
			"pbrMetallicRoughness":{
				"baseColorFactor":[
					0.4507858157157898,
					0.4507858157157898,
					0.4507858157157898,
					1
				],
				"metallicFactor":0.5,
				"roughnessFactor":0.5
			}
		},
		{
			"doubleSided":true,
			"name":"mat_2",
			"pbrMetallicRoughness":{
				"baseColorFactor":[
					0.03071344457566738,
					0.03071344457566738,
					0.03071344457566738,
					1
				],
				"metallicFactor":0.5,
				"roughnessFactor":0.5
			}
		}
	],
	"meshes":[
		{
			"name":"COMPOUND010",
			"primitives":[
				{
					"attributes":{
						"POSITION":0,
						"NORMAL":1
					},
					"indices":2,
					"material":0
				},
				{
					"attributes":{
						"POSITION":3,
						"NORMAL":4
					},
					"indices":5,
					"material":1
				}
			]
		}
	],
	"accessors":[
		{
			"bufferView":0,
			"componentType":5126,
			"count":22874,
			"max":[
				0.012500000186264515,
				0.08237000554800034,
				0.24040012061595917
			],
			"min":[
				-0.012500000186264515,
				0.04536999762058258,
				0.19159989058971405
			],
			"type":"VEC3"
		},
		{
			"bufferView":1,
			"componentType":5126,
			"count":22874,
			"type":"VEC3"
		},
		{
			"bufferView":2,
			"componentType":5123,
			"count":31620,
			"type":"SCALAR"
		},
		{
			"bufferView":3,
			"componentType":5126,
			"count":26602,
			"max":[
				0.010997221805155277,
				0.04554544761776924,
				0.2269906997680664
			],
			"min":[
				-0.010996343567967415,
				0.03597966954112053,
				0.20500929653644562
			],
			"type":"VEC3"
		},
		{
			"bufferView":4,
			"componentType":5126,
			"count":26602,
			"type":"VEC3"
		},
		{
			"bufferView":5,
			"componentType":5123,
			"count":31320,
			"type":"SCALAR"
		}
	],
	"bufferViews":[
		{
			"buffer":0,
			"byteLength":274488,
			"byteOffset":0,
			"target":34962
		},
		{
			"buffer":0,
			"byteLength":274488,
			"byteOffset":274488,
			"target":34962
		},
		{
			"buffer":0,
			"byteLength":63240,
			"byteOffset":548976,
			"target":34963
		},
		{
			"buffer":0,
			"byteLength":319224,
			"byteOffset":612216,
			"target":34962
		},
		{
			"buffer":0,
			"byteLength":319224,
			"byteOffset":931440,
			"target":34962
		},
		{
			"buffer":0,
			"byteLength":62640,
			"byteOffset":1250664,
			"target":34963
		}
	],
	"buffers":[
		{
			"byteLength":1313304,
			"uri":"CRANEplusV2_j1.bin"
		}
	]
}
