{
	"asset":{
		"generator":"Khronos glTF Blender I/O v4.1.63",
		"version":"2.0"
	},
	"scene":0,
	"scenes":[
		{
			"name":"Scene",
			"nodes":[
				1,
				2,
				3,
				7
			]
		}
	],
	"nodes":[
		{
			"name":"CRANE+V2"
		},
		{
			"children":[
				0
			],
			"name":"CRANEplusV2_20201013 v2",
			"translation":[
				0,
				0,
				-0.2160000056028366
			]
		},
		{
			"mesh":0,
			"name":"SHELL"
		},
		{
			"name":"COMPOUND033"
		},
		{
			"name":"COMPOUND011"
		},
		{
			"children":[
				4
			],
			"name":"\u30b5\u30fc\u30dc\uff11"
		},
		{
			"children":[
				5
			],
			"name":"CRANE+V2.001"
		},
		{
			"children":[
				6
			],
			"name":"CRANEplusV2_20201013 v2.001",
			"translation":[
				0,
				0,
				-0.2160000056028366
			]
		}
	],
	"materials":[
		{
			"doubleSided":true,
			"name":"mat_2",
			"pbrMetallicRoughness":{
				"baseColorFactor":[
					0.03071344457566738,
					0.03071344457566738,
					0.03071344457566738,
					1
				],
				"metallicFactor":0.5,
				"roughnessFactor":0.5
			}
		},
		{
			"doubleSided":true,
			"name":"mat_1",
			"pbrMetallicRoughness":{
				"baseColorFactor":[
					0.4507858157157898,
					0.4507858157157898,
					0.4507858157157898,
					1
				],
				"metallicFactor":0.5,
				"roughnessFactor":0.5
			}
		},
		{
			"doubleSided":true,
			"name":"mat_0",
			"pbrMetallicRoughness":{
				"baseColorFactor":[
					0.35153263807296753,
					0.35153263807296753,
					0.35153263807296753,
					1
				],
				"metallicFactor":0.5,
				"roughnessFactor":0.5
			}
		}
	],
	"meshes":[
		{
			"name":"SHELL",
			"primitives":[
				{
					"attributes":{
						"POSITION":0,
						"NORMAL":1
					},
					"indices":2,
					"material":0
				},
				{
					"attributes":{
						"POSITION":3,
						"NORMAL":4
					},
					"indices":5,
					"material":1
				},
				{
					"attributes":{
						"POSITION":6,
						"NORMAL":7
					},
					"indices":8,
					"material":2
				}
			]
		}
	],
	"accessors":[
		{
			"bufferView":0,
			"componentType":5126,
			"count":114808,
			"max":[
				0.0159902460873127,
				0.09452971816062927,
				0.02100173756480217
			],
			"min":[
				-0.016009753569960594,
				-0.011470280587673187,
				-0.025543708354234695
			],
			"type":"VEC3"
		},
		{
			"bufferView":1,
			"componentType":5126,
			"count":114808,
			"type":"VEC3"
		},
		{
			"bufferView":2,
			"componentType":5125,
			"count":136494,
			"type":"SCALAR"
		},
		{
			"bufferView":3,
			"componentType":5126,
			"count":9137,
			"max":[
				0.012490245513617992,
				0.05052971839904785,
				0.01895628497004509
			],
			"min":[
				-0.012509752996265888,
				0.03252972662448883,
				-0.01904371753334999
			],
			"type":"VEC3"
		},
		{
			"bufferView":4,
			"componentType":5126,
			"count":9137,
			"type":"VEC3"
		},
		{
			"bufferView":5,
			"componentType":5123,
			"count":15624,
			"type":"SCALAR"
		},
		{
			"bufferView":6,
			"componentType":5126,
			"count":5115,
			"max":[
				0.005990237928926945,
				0.0060297176241874695,
				-0.011443708091974258
			],
			"min":[
				-0.006009749136865139,
				-0.005970276892185211,
				-0.025543708354234695
			],
			"type":"VEC3"
		},
		{
			"bufferView":7,
			"componentType":5126,
			"count":5115,
			"type":"VEC3"
		},
		{
			"bufferView":8,
			"componentType":5123,
			"count":7350,
			"type":"SCALAR"
		}
	],
	"bufferViews":[
		{
			"buffer":0,
			"byteLength":1377696,
			"byteOffset":0,
			"target":34962
		},
		{
			"buffer":0,
			"byteLength":1377696,
			"byteOffset":1377696,
			"target":34962
		},
		{
			"buffer":0,
			"byteLength":545976,
			"byteOffset":2755392,
			"target":34963
		},
		{
			"buffer":0,
			"byteLength":109644,
			"byteOffset":3301368,
			"target":34962
		},
		{
			"buffer":0,
			"byteLength":109644,
			"byteOffset":3411012,
			"target":34962
		},
		{
			"buffer":0,
			"byteLength":31248,
			"byteOffset":3520656,
			"target":34963
		},
		{
			"buffer":0,
			"byteLength":61380,
			"byteOffset":3551904,
			"target":34962
		},
		{
			"buffer":0,
			"byteLength":61380,
			"byteOffset":3613284,
			"target":34962
		},
		{
			"buffer":0,
			"byteLength":14700,
			"byteOffset":3674664,
			"target":34963
		}
	],
	"buffers":[
		{
			"byteLength":3689364,
			"uri":"CRANEplusV2_j2.bin"
		}
	]
}
